<?xml version="1.0" encoding="utf-8"?>
<!-- Generator: Adobe Illustrator 24.0.1, SVG Export Plug-In . SVG Version: 6.00 Build 0)  -->
<svg version="1.1" id="Layer_1" xmlns="http://www.w3.org/2000/svg" xmlns:xlink="http://www.w3.org/1999/xlink" x="0px" y="0px"
	 viewBox="0 0 10 10" style="enable-background:new 0 0 10 10;" xml:space="preserve">
<style type="text/css">
	.st0{fill:#1D1D1B;}
</style>
<g>
	<g id="search">
		<path class="st0" d="M7.1,6.3H6.6L6.5,6.2c0.6-0.7,0.9-1.5,0.9-2.4c0-2-1.6-3.7-3.7-3.7S0.1,1.8,0.1,3.8s1.6,3.7,3.6,3.7
			c0.9,0,1.8-0.3,2.3-0.9l0.2,0.1v0.5L9,10l0.8-0.8L7.1,6.3z M3.7,6.3c-1.4,0-2.6-1.2-2.6-2.6s1.2-2.6,2.6-2.6s2.6,1.2,2.6,2.6
			S5.1,6.3,3.7,6.3z"/>
	</g>
</g>
</svg>
